<?xml version="1.0" encoding="utf-8"?>
<!-- Generator: Adobe Illustrator 28.2.0, SVG Export Plug-In . SVG Version: 6.00 Build 0)  -->
<svg version="1.1" id="Layer_1" xmlns="http://www.w3.org/2000/svg" xmlns:xlink="http://www.w3.org/1999/xlink" x="0px" y="0px"
	 viewBox="0 0 500 500" style="enable-background:new 0 0 500 500;" xml:space="preserve">
<style type="text/css">
	.st0{clip-path:url(#SVGID_00000142885365816257191620000016171047596829108625_);}
	.st1{fill:#5088E4;}
	.st2{fill:#5A94F2;}
	.st3{fill:#5A93F2;}
	.st4{fill:#FF7A00;}
	.st5{clip-path:url(#SVGID_00000035496059404242495320000017530463876769086594_);}
	.st6{opacity:0.3;fill:url(#SVGID_00000174602849002774679170000000130975149028847768_);enable-background:new    ;}
	.st7{opacity:0.2;fill:#FFFFFF;enable-background:new    ;}
	.st8{opacity:0.5;fill:url(#SVGID_00000158714423799057602430000014438753879628659639_);enable-background:new    ;}
	.st9{opacity:0.5;fill:url(#SVGID_00000091726568470244938070000009588200597593230239_);enable-background:new    ;}
	.st10{fill:#FFFFFF;}
	.st11{fill-rule:evenodd;clip-rule:evenodd;fill:#FFFFFF;}
</style>
<g id="Layer_1-2">
	<g>
		<defs>
			<path id="SVGID_1_" d="M293,310.5h144.4c5.1,0,9.1-4.5,8.4-9.6l-19.1-150.9c-0.5-4.2-4.1-7.4-8.4-7.4H313.5
				c-4.3,0-7.9,3.1-8.4,7.4l-20.5,150.9C283.9,306,287.9,310.5,293,310.5L293,310.5z"/>
		</defs>
		<clipPath id="SVGID_00000094602084011237846590000013325334268000893104_">
			<use xlink:href="#SVGID_1_"  style="overflow:visible;"/>
		</clipPath>
		<g style="clip-path:url(#SVGID_00000094602084011237846590000013325334268000893104_);">
			<g>
				<circle class="st1" cx="365.7" cy="182.5" r="91.7"/>
				<circle class="st2" cx="365.7" cy="219.8" r="91.7"/>
				<ellipse class="st1" cx="365.7" cy="257.7" rx="91.7" ry="91.2"/>
				<circle class="st3" cx="365.7" cy="295.5" r="91.7"/>
				<circle class="st1" cx="365.7" cy="332.8" r="91.7"/>
			</g>
		</g>
	</g>
</g>
<path class="st1" d="M84.4,339.6h-7.7l-1.5,4h-1.8l6.1-16.6h1.9l6.1,16.6h-1.8L84.4,339.6z M83.9,338.2l-3.3-9.1l-3.3,9.1H83.9z
	 M226,333.4c0.5-0.9,1.1-1.7,2-2.3c0.9-0.6,2-0.9,3.2-0.9c1.2,0,2.3,0.3,3.2,0.9c1,0.6,1.7,1.4,2.2,2.4c0.6,1,0.8,2.2,0.8,3.6
	c0,1.4-0.2,2.6-0.8,3.6c-0.6,1-1.3,1.8-2.3,2.4c-1,0.6-2,0.9-3.2,0.9c-1.3,0-2.4-0.3-3.3-0.9c-0.9-0.6-1.6-1.3-2-2.3v2.9h-1.6v-17.8
	h1.7V333.4z M235.8,337c0-1.1-0.2-2-0.7-2.8c-0.4-0.8-1-1.4-1.8-1.8c-0.8-0.4-1.6-0.6-2.5-0.6c-0.9,0-1.7,0.2-2.5,0.7
	c-0.8,0.5-1.3,1.1-1.8,1.9c-0.5,0.8-0.7,1.8-0.7,2.8s0.2,2,0.7,2.8c0.4,0.8,1,1.4,1.8,1.9c0.8,0.5,1.6,0.6,2.5,0.6
	c1,0,1.8-0.2,2.5-0.6c0.8-0.5,1.3-1.1,1.8-1.9C235.6,339.1,235.8,338.1,235.8,337z M250.1,330.5v13.1h-1.7v-2.3
	c-0.4,0.8-1,1.5-1.8,1.9c-0.8,0.4-1.7,0.7-2.7,0.7c-1.6,0-2.9-0.5-3.9-1.5c-1-1-1.5-2.4-1.5-4.2v-7.7h1.7v7.5c0,1.4,0.3,2.5,1.1,3.3
	s1.7,1.2,3,1.2c1.3,0,2.3-0.4,3-1.2c0.8-0.8,1.2-2,1.2-3.6v-7.2L250.1,330.5L250.1,330.5z M252.8,328c-0.4,0-0.6-0.1-0.9-0.4
	c-0.3-0.2-0.4-0.6-0.4-0.9s0.1-0.7,0.4-0.9c0.2-0.2,0.6-0.4,0.9-0.4c0.4,0,0.6,0.1,0.9,0.4c0.2,0.2,0.4,0.5,0.4,0.9
	s-0.1,0.7-0.4,0.9C253.4,327.9,253.1,328,252.8,328z M253.6,330.5v13.1h-1.7v-13.1H253.6z M257.2,325.9v17.8h-1.7v-17.8H257.2z
	 M261.3,331.9v8.2c0,0.8,0.1,1.4,0.4,1.7c0.3,0.3,0.9,0.4,1.6,0.4h1.6v1.5h-1.8c-1.2,0-2.1-0.2-2.7-0.8c-0.6-0.6-0.9-1.5-0.9-2.8
	v-8.2h-1.8v-1.4h1.8v-3.3h1.7v3.3h3.6v1.4H261.3z M276.2,343.8c-1.3,0-2.4-0.2-3.4-0.8c-1-0.6-1.8-1.4-2.4-2.4
	c-0.5-1-0.9-2.2-0.9-3.6c0-1.4,0.3-2.6,0.9-3.6c0.6-1,1.4-1.8,2.4-2.4c1-0.5,2.1-0.9,3.4-0.9c1.3,0,2.4,0.3,3.4,0.9
	c1,0.6,1.8,1.4,2.4,2.4c0.6,1,0.9,2.2,0.9,3.6c0,1.4-0.3,2.6-0.9,3.6c-0.6,1-1.4,1.8-2.4,2.4C278.5,343.5,277.4,343.8,276.2,343.8z
	 M276.2,342.4c0.9,0,1.7-0.2,2.4-0.6c0.8-0.4,1.4-1,1.8-1.8c0.5-0.8,0.7-1.8,0.7-3s-0.2-2.1-0.7-2.9c-0.4-0.8-1.1-1.4-1.8-1.8
	c-0.8-0.4-1.6-0.6-2.4-0.6c-0.9,0-1.7,0.2-2.4,0.6c-0.8,0.4-1.4,1-1.8,1.8c-0.4,0.8-0.7,1.8-0.7,2.9s0.2,2.2,0.7,3
	c0.5,0.8,1.1,1.4,1.8,1.8C274.5,342.2,275.3,342.4,276.2,342.4z M290.1,330.3c1.6,0,2.9,0.5,3.9,1.5c1,1,1.5,2.4,1.5,4.2v7.7h-1.7
	v-7.5c0-1.4-0.4-2.5-1.1-3.3c-0.7-0.8-1.7-1.2-2.9-1.2c-1.3,0-2.3,0.4-3,1.2c-0.8,0.8-1.2,2-1.2,3.6v7.2h-1.7v-13.1h1.7v2.3
	c0.4-0.8,1-1.4,1.8-1.8C288.2,330.5,289.1,330.3,290.1,330.3z"/>
<path class="st4" d="M109.5,327.1v16.6h-1.7v-13.2l-5.9,13.2h-1.2l-6-13.2v13.2H93v-16.6h1.8l6.4,14.4l6.4-14.4H109.5z M110.6,337
	c0-1.4,0.3-2.5,0.8-3.6c0.6-1,1.3-1.8,2.3-2.4c1-0.6,2.1-0.9,3.3-0.9c1.3,0,2.3,0.3,3.2,0.9c0.9,0.6,1.6,1.3,2,2.2v-2.9h1.7v13.2
	h-1.7v-2.9c-0.4,0.9-1.1,1.7-2,2.3c-0.9,0.6-2,0.9-3.2,0.9c-1.2,0-2.3-0.3-3.2-0.9c-1-0.5-1.7-1.4-2.3-2.4
	C110.9,339.6,110.6,338.4,110.6,337z M122.1,337.1c0-1.1-0.2-2-0.7-2.8c-0.5-0.8-1-1.4-1.8-1.9c-0.8-0.5-1.6-0.7-2.5-0.7
	c-1,0-1.8,0.2-2.5,0.6c-0.8,0.4-1.3,1-1.8,1.8c-0.4,0.8-0.6,1.7-0.6,2.8c0,1.1,0.2,2,0.6,2.9c0.5,0.8,1,1.4,1.8,1.9
	c0.8,0.4,1.6,0.6,2.5,0.6c0.9,0,1.7-0.2,2.5-0.6c0.8-0.5,1.4-1.1,1.8-1.9C121.8,339.1,122.1,338.1,122.1,337.1z M127.3,332.8
	c0.4-0.8,1-1.5,1.7-1.9c0.8-0.5,1.7-0.7,2.8-0.7v1.8h-0.5c-1.2,0-2.2,0.4-3,1c-0.8,0.7-1.1,1.8-1.1,3.3v7.3h-1.7v-13.1h1.7V332.8z
	 M139.5,343.6l-5.4-5.9v5.9h-1.7v-17.8h1.7v10.5l5.3-5.9h2.4l-6.2,6.6l6.2,6.6H139.5z M153.9,336.4c0,0.6,0,1-0.1,1.3H143
	c0.1,1,0.3,1.9,0.7,2.6c0.4,0.7,1,1.3,1.7,1.6c0.7,0.4,1.5,0.5,2.3,0.5c1.1,0,2-0.2,2.8-0.8c0.8-0.6,1.3-1.3,1.5-2.2h1.8
	c-0.3,1.3-1,2.4-2.1,3.2c-1.1,0.8-2.4,1.2-4,1.2c-1.3,0-2.4-0.2-3.3-0.8c-1-0.6-1.8-1.4-2.3-2.4c-0.6-1-0.8-2.2-0.8-3.6
	c0-1.4,0.2-2.6,0.8-3.6c0.6-1,1.3-1.8,2.3-2.4c1-0.6,2.1-0.8,3.4-0.8c1.3,0,2.4,0.3,3.3,0.8c1,0.6,1.7,1.3,2.2,2.2
	C153.7,334.3,153.9,335.3,153.9,336.4z M152.2,336.4c0-1-0.2-1.8-0.6-2.5c-0.4-0.7-1-1.2-1.7-1.6c-0.7-0.4-1.5-0.6-2.3-0.6
	c-1.3,0-2.3,0.4-3.2,1.2s-1.4,2-1.5,3.4H152.2z M157.3,331.9v8.2c0,0.8,0.1,1.4,0.4,1.7c0.3,0.3,0.9,0.4,1.6,0.4h1.6v1.5h-1.8
	c-1.2,0-2.1-0.2-2.7-0.8s-0.9-1.5-0.9-2.8v-8.2h-1.8v-1.4h1.8v-3.3h1.7v3.3h3.6v1.4H157.3z M163.4,333.4c0.4-0.9,1.1-1.6,2-2.2
	c0.9-0.6,2-0.9,3.3-0.9c1.2,0,2.3,0.3,3.2,0.9c1,0.6,1.7,1.4,2.3,2.4c0.6,1,0.8,2.2,0.8,3.6c0,1.4-0.3,2.6-0.8,3.6
	c-0.6,1-1.3,1.8-2.3,2.4c-1,0.6-2,0.9-3.2,0.9c-1.3,0-2.3-0.3-3.2-0.9c-0.9-0.6-1.6-1.4-2-2.2v9.1h-1.7v-19.3h1.7V333.4z M173.1,337
	c0-1.1-0.2-2-0.7-2.8c-0.4-0.8-1-1.4-1.8-1.8c-0.8-0.4-1.6-0.6-2.5-0.6c-0.9,0-1.7,0.2-2.5,0.7c-0.8,0.5-1.3,1.1-1.8,1.9
	c-0.5,0.8-0.7,1.8-0.7,2.8s0.2,2,0.7,2.8c0.4,0.8,1,1.4,1.8,1.9c0.8,0.5,1.6,0.6,2.5,0.6c1,0,1.8-0.2,2.5-0.6
	c0.8-0.5,1.3-1.1,1.8-1.9C172.9,339.1,173.1,338.1,173.1,337z M177.7,325.9v17.8H176v-17.8H177.7z M178.8,337c0-1.4,0.3-2.5,0.8-3.6
	c0.6-1,1.3-1.8,2.3-2.4c1-0.6,2.1-0.9,3.3-0.9c1.3,0,2.3,0.3,3.2,0.9c0.9,0.6,1.6,1.3,2,2.2v-2.9h1.7v13.2h-1.7v-2.9
	c-0.4,0.9-1.1,1.7-2,2.3c-0.9,0.6-2,0.9-3.2,0.9c-1.2,0-2.3-0.3-3.2-0.9c-1-0.5-1.7-1.4-2.3-2.4C179.1,339.6,178.8,338.4,178.8,337z
	 M190.3,337.1c0-1.1-0.2-2-0.7-2.8c-0.4-0.8-1-1.4-1.8-1.9c-0.8-0.5-1.6-0.7-2.5-0.7c-1,0-1.8,0.2-2.5,0.6c-0.8,0.4-1.3,1-1.8,1.8
	c-0.4,0.8-0.6,1.7-0.6,2.8c0,1.1,0.2,2,0.6,2.9c0.5,0.8,1,1.4,1.8,1.9c0.8,0.4,1.6,0.6,2.5,0.6c0.9,0,1.7-0.2,2.5-0.6
	c0.8-0.5,1.4-1.1,1.8-1.9C190.1,339.1,190.3,338.1,190.3,337.1z M193.1,337.1c0-1.4,0.2-2.6,0.8-3.6c0.6-1,1.3-1.8,2.3-2.4
	c1-0.5,2.1-0.9,3.3-0.9c1.6,0,3,0.4,4,1.2c1.1,0.8,1.8,1.9,2.1,3.3h-1.8c-0.2-1-0.7-1.7-1.5-2.2c-0.8-0.6-1.7-0.8-2.8-0.8
	c-0.9,0-1.7,0.2-2.4,0.6c-0.7,0.4-1.3,1-1.7,1.8c-0.4,0.8-0.6,1.8-0.6,2.9c0,1.2,0.2,2.2,0.6,3c0.4,0.8,1,1.4,1.7,1.8
	c0.7,0.4,1.5,0.6,2.4,0.6c1.1,0,2-0.2,2.8-0.8c0.8-0.6,1.3-1.3,1.5-2.3h1.8c-0.3,1.4-1,2.4-2.1,3.3c-1.1,0.8-2.4,1.2-4,1.2
	c-1.3,0-2.4-0.2-3.3-0.8c-1-0.6-1.7-1.4-2.3-2.4C193.4,339.6,193.1,338.4,193.1,337.1z M218.6,336.4c0,0.6,0,1-0.1,1.3h-10.9
	c0.1,1,0.3,1.9,0.7,2.6c0.5,0.7,1,1.3,1.7,1.6c0.7,0.4,1.5,0.5,2.3,0.5c1.1,0,2-0.2,2.8-0.8c0.8-0.6,1.3-1.3,1.5-2.2h1.8
	c-0.3,1.3-1,2.4-2.1,3.2c-1.1,0.8-2.4,1.2-4,1.2c-1.3,0-2.4-0.2-3.3-0.8c-1-0.6-1.8-1.4-2.3-2.4c-0.5-1-0.8-2.2-0.8-3.6
	c0-1.4,0.3-2.6,0.8-3.6c0.6-1,1.3-1.8,2.3-2.4c1-0.6,2.1-0.8,3.4-0.8c1.3,0,2.4,0.3,3.3,0.8c1,0.6,1.7,1.3,2.2,2.2
	C218.3,334.3,218.6,335.3,218.6,336.4z M216.9,336.4c0-1-0.2-1.8-0.6-2.5c-0.4-0.7-1-1.2-1.7-1.6c-0.7-0.4-1.5-0.6-2.3-0.6
	c-1.3,0-2.3,0.4-3.2,1.2s-1.4,2-1.5,3.4H216.9z M303.5,333.4c0.4-0.9,1.1-1.6,2-2.2c0.9-0.6,2-0.9,3.3-0.9c1.2,0,2.3,0.3,3.2,0.9
	c1,0.6,1.7,1.4,2.3,2.4c0.5,1,0.8,2.2,0.8,3.6c0,1.4-0.3,2.6-0.8,3.6c-0.6,1-1.3,1.8-2.3,2.4c-1,0.6-2,0.9-3.2,0.9
	c-1.3,0-2.3-0.3-3.2-0.9c-0.9-0.6-1.6-1.4-2-2.2v9.1h-1.7v-19.3h1.7V333.4z M313.3,337c0-1.1-0.2-2-0.7-2.8c-0.4-0.8-1-1.4-1.8-1.8
	c-0.8-0.4-1.6-0.6-2.5-0.6c-0.9,0-1.7,0.2-2.5,0.7c-0.8,0.5-1.3,1.1-1.8,1.9c-0.5,0.8-0.7,1.8-0.7,2.8s0.2,2,0.7,2.8
	c0.5,0.8,1,1.4,1.8,1.9c0.8,0.5,1.6,0.6,2.5,0.6c1,0,1.8-0.2,2.5-0.6c0.8-0.5,1.3-1.1,1.8-1.9C313,339.1,313.3,338.1,313.3,337z
	 M321.9,343.8c-1.3,0-2.4-0.2-3.4-0.8c-1-0.6-1.8-1.4-2.4-2.4c-0.5-1-0.9-2.2-0.9-3.6c0-1.4,0.3-2.6,0.9-3.6c0.6-1,1.4-1.8,2.4-2.4
	c1-0.5,2.1-0.9,3.4-0.9c1.3,0,2.4,0.3,3.4,0.9c1,0.6,1.8,1.4,2.4,2.4c0.6,1,0.9,2.2,0.9,3.6c0,1.4-0.3,2.6-0.9,3.6
	c-0.6,1-1.4,1.8-2.4,2.4C324.3,343.5,323.2,343.8,321.9,343.8z M321.9,342.4c0.9,0,1.7-0.2,2.4-0.6c0.8-0.4,1.4-1,1.8-1.8
	c0.4-0.8,0.7-1.8,0.7-3s-0.2-2.1-0.7-2.9c-0.5-0.8-1.1-1.4-1.8-1.8c-0.8-0.4-1.6-0.6-2.4-0.6c-0.9,0-1.7,0.2-2.4,0.6
	c-0.8,0.4-1.4,1-1.8,1.8c-0.5,0.8-0.7,1.8-0.7,2.9s0.2,2.2,0.7,3c0.5,0.8,1.1,1.4,1.8,1.8C320.3,342.2,321.1,342.4,321.9,342.4z
	 M334.2,343.8c-1.5,0-2.8-0.4-3.7-1.1c-1-0.7-1.5-1.7-1.6-2.9h1.8c0.1,0.8,0.4,1.4,1.1,1.8c0.6,0.4,1.5,0.6,2.5,0.6
	c0.9,0,1.6-0.2,2.2-0.6c0.6-0.5,0.8-1,0.8-1.6c0-0.5-0.2-0.8-0.5-1.1c-0.3-0.3-0.6-0.5-1.1-0.6c-0.5-0.2-1-0.4-1.8-0.6
	c-1-0.2-1.8-0.5-2.4-0.8c-0.6-0.2-1.2-0.7-1.6-1.2c-0.4-0.5-0.6-1.2-0.6-2.1c0-0.6,0.2-1.3,0.6-1.8c0.4-0.5,1-1,1.7-1.3
	c0.7-0.3,1.5-0.5,2.4-0.5c1.4,0,2.6,0.4,3.4,1.1c0.9,0.7,1.4,1.7,1.4,3H337c0-0.8-0.4-1.4-0.9-1.9c-0.6-0.5-1.3-0.7-2.3-0.7
	c-0.9,0-1.6,0.2-2.1,0.6c-0.6,0.4-0.8,0.9-0.8,1.5c0,0.5,0.1,1,0.5,1.3c0.3,0.3,0.7,0.6,1.2,0.8c0.4,0.2,1.1,0.4,1.9,0.6
	c1,0.3,1.7,0.5,2.3,0.8c0.6,0.3,1.1,0.6,1.5,1.1c0.4,0.4,0.6,1.1,0.6,1.9c0,0.7-0.2,1.4-0.6,1.9c-0.4,0.6-0.9,1-1.6,1.3
	C335.9,343.7,335.1,343.8,334.2,343.8z M344.5,343.8c-1.5,0-2.8-0.4-3.7-1.1c-1-0.7-1.5-1.7-1.6-2.9h1.8c0.1,0.8,0.4,1.4,1.1,1.8
	c0.6,0.4,1.5,0.6,2.5,0.6c0.9,0,1.6-0.2,2.2-0.6c0.6-0.5,0.8-1,0.8-1.6c0-0.5-0.1-0.8-0.5-1.1c-0.3-0.3-0.6-0.5-1.1-0.6
	c-0.4-0.2-1-0.4-1.8-0.6c-1-0.2-1.8-0.5-2.4-0.8c-0.6-0.2-1.2-0.7-1.6-1.2c-0.4-0.5-0.6-1.2-0.6-2.1c0-0.6,0.2-1.3,0.6-1.8
	c0.4-0.5,1-1,1.7-1.3c0.7-0.3,1.5-0.5,2.4-0.5c1.4,0,2.6,0.4,3.4,1.1c0.9,0.7,1.4,1.7,1.4,3h-1.7c0-0.8-0.4-1.4-0.9-1.9
	c-0.6-0.5-1.3-0.7-2.3-0.7c-0.9,0-1.6,0.2-2.1,0.6c-0.6,0.4-0.8,0.9-0.8,1.5c0,0.5,0.1,1,0.4,1.3c0.3,0.3,0.7,0.6,1.2,0.8
	c0.5,0.2,1.1,0.4,1.9,0.6c1,0.3,1.7,0.5,2.3,0.8c0.6,0.3,1.1,0.6,1.5,1.1c0.4,0.4,0.6,1.1,0.6,1.9c0,0.7-0.2,1.4-0.6,1.9
	c-0.4,0.6-0.9,1-1.6,1.3C346.2,343.6,345.4,343.8,344.5,343.8z M351.1,328c-0.4,0-0.6-0.1-0.9-0.4c-0.2-0.2-0.3-0.6-0.3-0.9
	s0.1-0.7,0.3-0.9c0.3-0.2,0.6-0.4,0.9-0.4c0.3,0,0.6,0.1,0.9,0.4c0.3,0.2,0.4,0.5,0.4,0.9s-0.1,0.7-0.4,0.9
	C351.7,327.9,351.5,328,351.1,328z M352,330.5v13.1h-1.7v-13.1H352z M355.5,333.4c0.4-0.9,1.1-1.7,2-2.3c0.9-0.6,2-0.9,3.2-0.9
	c1.2,0,2.3,0.3,3.2,0.9c1,0.6,1.7,1.4,2.2,2.4c0.6,1,0.8,2.2,0.8,3.6c0,1.4-0.2,2.6-0.8,3.6c-0.6,1-1.3,1.8-2.3,2.4
	c-1,0.6-2,0.9-3.2,0.9c-1.3,0-2.4-0.3-3.3-0.9c-0.9-0.6-1.6-1.3-2-2.3v2.9h-1.7v-17.8h1.7L355.5,333.4L355.5,333.4z M365.3,337
	c0-1.1-0.2-2-0.7-2.8c-0.4-0.8-1-1.4-1.8-1.8c-0.8-0.4-1.6-0.6-2.5-0.6c-0.9,0-1.7,0.2-2.5,0.7c-0.8,0.5-1.3,1.1-1.8,1.9
	c-0.5,0.8-0.6,1.8-0.6,2.8s0.2,2,0.6,2.8c0.5,0.8,1,1.4,1.8,1.9c0.8,0.5,1.6,0.6,2.5,0.6c1,0,1.8-0.2,2.5-0.6
	c0.8-0.5,1.3-1.1,1.8-1.9C365.1,339.1,365.3,338.1,365.3,337z M369,328c-0.4,0-0.6-0.1-0.9-0.4c-0.2-0.2-0.4-0.6-0.4-0.9
	s0.1-0.7,0.4-0.9c0.3-0.2,0.6-0.4,0.9-0.4c0.3,0,0.6,0.1,0.9,0.4c0.3,0.2,0.4,0.5,0.4,0.9s-0.1,0.7-0.4,0.9
	C369.6,327.9,369.4,328,369,328z M369.9,330.5v13.1h-1.7v-13.1H369.9z M373.4,325.9v17.8h-1.7v-17.8H373.4z M376.2,328
	c-0.4,0-0.6-0.1-0.9-0.4s-0.4-0.6-0.4-0.9s0.1-0.7,0.4-0.9c0.2-0.2,0.6-0.4,0.9-0.4c0.3,0,0.6,0.1,0.9,0.4c0.2,0.2,0.3,0.5,0.3,0.9
	s-0.1,0.7-0.3,0.9S376.5,328,376.2,328z M377,330.5v13.1h-1.7v-13.1H377z M381.1,331.9v8.2c0,0.8,0.1,1.4,0.4,1.7
	c0.3,0.3,0.9,0.4,1.6,0.4h1.6v1.5h-1.8c-1.2,0-2.1-0.2-2.7-0.8c-0.6-0.6-0.9-1.5-0.9-2.8v-8.2h-1.8v-1.4h1.8v-3.3h1.7v3.3h3.6v1.4
	H381.1z M386.3,328c-0.4,0-0.6-0.1-0.9-0.4c-0.3-0.2-0.4-0.6-0.4-0.9s0.1-0.7,0.4-0.9c0.2-0.2,0.5-0.4,0.9-0.4
	c0.3,0,0.6,0.1,0.9,0.4c0.2,0.2,0.4,0.5,0.4,0.9s-0.1,0.7-0.4,0.9C387,327.9,386.7,328,386.3,328z M387.2,330.5v13.1h-1.7v-13.1
	H387.2z M400.9,336.4c0,0.6,0,1,0,1.3H390c0,1,0.3,1.9,0.7,2.6c0.5,0.7,1,1.3,1.7,1.6c0.7,0.4,1.5,0.5,2.3,0.5c1.1,0,2-0.2,2.8-0.8
	c0.8-0.6,1.3-1.3,1.5-2.2h1.8c-0.3,1.3-1,2.4-2.1,3.2c-1.1,0.8-2.4,1.2-4,1.2c-1.3,0-2.4-0.2-3.3-0.8c-1-0.6-1.8-1.4-2.3-2.4
	c-0.6-1-0.8-2.2-0.8-3.6c0-1.4,0.2-2.6,0.8-3.6c0.6-1,1.3-1.8,2.3-2.4c1-0.6,2.1-0.8,3.4-0.8c1.3,0,2.4,0.3,3.3,0.8
	c1,0.6,1.7,1.3,2.2,2.2C400.7,334.3,400.9,335.3,400.9,336.4z M399.2,336.4c0-1-0.2-1.8-0.6-2.5c-0.4-0.7-1-1.2-1.7-1.6
	c-0.7-0.4-1.5-0.6-2.3-0.6c-1.3,0-2.3,0.4-3.2,1.2s-1.4,2-1.5,3.4H399.2z M406.6,343.8c-1.5,0-2.8-0.4-3.7-1.1
	c-1-0.7-1.5-1.7-1.6-2.9h1.8c0.1,0.8,0.5,1.4,1.1,1.8c0.6,0.4,1.5,0.6,2.5,0.6c0.9,0,1.6-0.2,2.2-0.6c0.5-0.5,0.8-1,0.8-1.6
	c0-0.5-0.1-0.8-0.5-1.1c-0.3-0.3-0.7-0.5-1.1-0.6c-0.5-0.2-1.1-0.4-1.8-0.6c-1-0.2-1.8-0.5-2.4-0.8c-0.6-0.2-1.1-0.7-1.6-1.2
	c-0.4-0.5-0.6-1.2-0.6-2.1c0-0.6,0.2-1.3,0.6-1.8c0.4-0.5,0.9-1,1.7-1.3c0.7-0.3,1.5-0.5,2.4-0.5c1.4,0,2.6,0.4,3.4,1.1
	c0.9,0.7,1.4,1.7,1.4,3h-1.7c-0.1-0.8-0.4-1.4-0.9-1.9c-0.6-0.5-1.3-0.7-2.3-0.7c-0.9,0-1.6,0.2-2.1,0.6c-0.6,0.4-0.8,0.9-0.8,1.5
	c0,0.5,0.1,1,0.5,1.3c0.3,0.3,0.7,0.6,1.2,0.8c0.5,0.2,1.1,0.4,1.9,0.6c1,0.3,1.7,0.5,2.3,0.8c0.6,0.3,1.1,0.6,1.5,1.1
	c0.4,0.4,0.6,1.1,0.6,1.9c0,0.7-0.2,1.4-0.6,1.9c-0.4,0.6-0.9,1-1.6,1.3C408.3,343.7,407.5,343.8,406.6,343.8z"/>
<path class="st1" d="M54,177.4c5.4,0,10.1,1.1,14.1,3.2c4.1,2.1,7.3,5.1,9.4,9c2.3,3.9,3.4,8.4,3.4,13.5c0,5.1-1.1,9.6-3.4,13.5
	c-2.2,3.8-5.4,6.8-9.4,8.9c-4.1,2.1-8.8,3.2-14.1,3.2H36.2v-51.1H54z M53.6,219.8c5.4,0,9.5-1.5,12.4-4.4c2.9-3,4.4-7.1,4.4-12.4
	c0-5.3-1.5-9.5-4.4-12.4c-2.9-3-7.1-4.6-12.4-4.6h-7.3v33.7H53.6z M93,194.2c1.3-2.2,3-3.8,5.1-5.1c2.2-1.2,4.6-1.9,7.3-1.9v10.8
	h-2.7c-3.2,0-5.7,0.8-7.3,2.3c-1.6,1.5-2.4,4.2-2.4,7.9v20.2H82.7V188H93V194.2z M144.1,207.4c0,1.5-0.1,2.8-0.3,4h-29.6
	c0.3,2.9,1.3,5.2,3.1,6.9c1.8,1.7,4,2.5,6.7,2.5c3.8,0,6.5-1.7,8.1-4.9h11.1c-1.2,3.9-3.4,7.1-6.7,9.7c-3.3,2.5-7.4,3.8-12.2,3.8
	c-3.9,0-7.4-0.9-10.5-2.6c-3.1-1.8-5.5-4.2-7.3-7.4c-1.7-3.2-2.6-6.8-2.6-11c0-4.2,0.9-7.9,2.6-11.1c1.7-3.2,4.1-5.6,7.2-7.3
	c3.1-1.7,6.6-2.6,10.6-2.6c3.9,0,7.3,0.9,10.3,2.5c3.1,1.7,5.5,4,7.1,7.1C143.2,199.9,144.1,203.4,144.1,207.4z M133.5,204.4
	c-0.1-2.7-1-4.7-2.9-6.3c-1.9-1.6-4.1-2.4-6.8-2.4c-2.6,0-4.7,0.8-6.5,2.4c-1.7,1.5-2.8,3.7-3.2,6.4H133.5z M146.7,208.1
	c0-4.1,0.8-7.7,2.4-10.9c1.7-3.2,3.9-5.6,6.7-7.3c2.8-1.7,6-2.6,9.4-2.6c3,0,5.7,0.6,7.9,1.9c2.3,1.2,4.1,2.8,5.5,4.6V188h10.3v40.5
	h-10.3v-5.9c-1.3,1.9-3.2,3.5-5.5,4.8c-2.3,1.2-5,1.9-8,1.9c-3.4,0-6.6-0.9-9.4-2.7c-2.8-1.8-5-4.2-6.7-7.4
	C147.5,215.9,146.7,212.2,146.7,208.1z M178.6,208.2c0-2.5-0.5-4.6-1.5-6.4c-1-1.8-2.3-3.2-4-4.1c-1.7-1-3.5-1.5-5.4-1.5
	c-1.9,0-3.7,0.5-5.3,1.4c-1.6,0.9-2.9,2.3-4,4.1c-1,1.8-1.5,3.9-1.5,6.3c0,2.5,0.5,4.6,1.5,6.5c1,1.8,2.4,3.2,4,4.2
	c1.7,1,3.4,1.5,5.3,1.5c1.9,0,3.7-0.5,5.4-1.4c1.7-1,3-2.4,4-4.1C178.1,212.9,178.6,210.7,178.6,208.2z M247.1,187.4
	c5,0,9,1.6,12,4.6c3.1,3,4.6,7.3,4.6,12.7v23.8h-10.3v-22.4c0-3.2-0.8-5.6-2.4-7.3c-1.6-1.7-3.8-2.6-6.6-2.6c-2.8,0-5,0.9-6.7,2.6
	c-1.6,1.7-2.4,4.1-2.4,7.3v22.4h-10.3v-22.4c0-3.2-0.8-5.6-2.4-7.3c-1.6-1.7-3.8-2.6-6.6-2.6c-2.8,0-5.1,0.9-6.7,2.6
	c-1.6,1.7-2.4,4.1-2.4,7.3v22.4h-10.3V188h10.3v4.9c1.3-1.7,3-3.1,5.1-4c2.1-1,4.4-1.5,6.9-1.5c3.2,0,6,0.7,8.5,2.1
	c2.5,1.3,4.4,3.2,5.8,5.7c1.3-2.4,3.2-4.2,5.7-5.6C241.4,188.1,244.2,187.4,247.1,187.4z"/>
<path class="st4" d="M141.9,242v35.3h-7.1v-23l-9.5,23H120l-9.5-23v23h-7.1V242h8.1l11.2,26.3l11.2-26.3H141.9z M143.1,263.2
	c0-2.9,0.6-5.4,1.7-7.6c1.2-2.2,2.7-3.9,4.6-5.1c2-1.2,4.2-1.8,6.5-1.8c2.1,0,3.9,0.4,5.5,1.3c1.6,0.9,2.9,1.9,3.8,3.2v-4h7.2v28
	h-7.2v-4.1c-0.9,1.3-2.2,2.4-3.8,3.3c-1.6,0.9-3.4,1.3-5.5,1.3c-2.4,0-4.5-0.6-6.5-1.8c-1.9-1.2-3.5-2.9-4.6-5.1
	C143.6,268.6,143.1,266,143.1,263.2z M165.2,263.3c0-1.7-0.3-3.2-1-4.4c-0.7-1.3-1.6-2.2-2.8-2.9c-1.2-0.7-2.4-1-3.7-1
	c-1.3,0-2.6,0.3-3.7,1c-1.1,0.7-2,1.6-2.8,2.9c-0.7,1.2-1,2.7-1,4.4s0.3,3.2,1,4.5c0.7,1.3,1.6,2.2,2.8,2.9c1.2,0.6,2.4,1,3.7,1
	c1.3,0,2.6-0.3,3.7-1c1.2-0.7,2.1-1.6,2.8-2.9C164.8,266.5,165.2,265,165.2,263.3z M182.2,253.6c0.9-1.5,2.1-2.7,3.6-3.5
	c1.5-0.9,3.2-1.3,5.1-1.3v7.5H189c-2.2,0-3.9,0.5-5.1,1.6c-1.1,1.1-1.7,2.9-1.7,5.5v14h-7.1v-28h7.1L182.2,253.6L182.2,253.6z
	 M208.2,277.3l-9.5-12v12h-7.1v-37.4h7.1v21.3l9.4-11.9h9.2l-12.4,14.1l12.5,14H208.2z M215.2,263.2c0-2.9,0.6-5.4,1.7-7.6
	c1.2-2.2,2.7-3.9,4.6-5.1c2-1.2,4.2-1.8,6.5-1.8c2.1,0,3.9,0.4,5.5,1.3c1.6,0.9,2.9,1.9,3.8,3.2v-4h7.2v28h-7.2v-4.1
	c-0.9,1.3-2.2,2.4-3.8,3.3c-1.6,0.9-3.4,1.3-5.5,1.3c-2.4,0-4.5-0.6-6.5-1.8c-1.9-1.2-3.5-2.9-4.6-5.1
	C215.8,268.6,215.2,266,215.2,263.2z M237.3,263.3c0-1.7-0.4-3.2-1-4.4c-0.7-1.3-1.6-2.2-2.8-2.9c-1.2-0.7-2.4-1-3.7-1
	c-1.3,0-2.6,0.3-3.7,1c-1.1,0.7-2,1.6-2.8,2.9c-0.7,1.2-1,2.7-1,4.4s0.4,3.2,1,4.5c0.7,1.3,1.6,2.2,2.8,2.9c1.2,0.6,2.4,1,3.7,1
	c1.3,0,2.6-0.3,3.7-1c1.2-0.7,2.1-1.6,2.8-2.9C237,266.5,237.3,265,237.3,263.3z M253.8,271.5h12.5v5.8h-20.5v-5.7l12.3-16.5h-12.2
	v-5.8h20.3v5.7L253.8,271.5z"/>
<path class="st1" d="M179.3,306.8c-1.1,0-1.9-0.3-2.6-0.9c-0.7-0.6-1-1.4-1-2.3c0-0.9,0.3-1.7,1-2.4c0.7-0.6,1.6-1,2.6-1
	c1,0,1.9,0.3,2.5,1c0.7,0.6,1,1.4,1,2.4c0,0.9-0.3,1.7-1,2.3C181.2,306.5,180.4,306.8,179.3,306.8z M185.3,296.7
	c0-2,0.4-3.8,1.2-5.4c0.8-1.5,2-2.7,3.5-3.5c1.5-0.8,3.2-1.2,5.1-1.2c2.5,0,4.5,0.6,6.2,1.9c1.7,1.3,2.8,3.1,3.3,5.5h-6.4
	c-0.5-1.5-1.6-2.3-3.1-2.3c-1.1,0-2,0.4-2.6,1.3c-0.7,0.8-1,2.1-1,3.7c0,1.6,0.3,2.8,1,3.7c0.7,0.8,1.5,1.3,2.6,1.3
	c1.6,0,2.6-0.8,3.1-2.3h6.4c-0.5,2.3-1.6,4.1-3.3,5.4c-1.7,1.3-3.7,2-6.2,2c-1.9,0-3.6-0.4-5.1-1.2c-1.5-0.8-2.6-2-3.5-3.5
	C185.7,300.5,185.3,298.7,185.3,296.7z M216.8,306.8c-1.9,0-3.7-0.4-5.2-1.2c-1.5-0.8-2.7-2-3.6-3.5c-0.9-1.5-1.3-3.3-1.3-5.4
	c0-2,0.4-3.8,1.3-5.3c0.9-1.6,2.1-2.7,3.7-3.6c1.6-0.8,3.3-1.2,5.2-1.2c1.9,0,3.7,0.4,5.2,1.2c1.6,0.8,2.8,2,3.7,3.6
	c0.9,1.5,1.3,3.3,1.3,5.3s-0.5,3.8-1.4,5.4c-0.9,1.5-2.1,2.7-3.7,3.5C220.4,306.4,218.7,306.8,216.8,306.8z M216.8,301.6
	c1.2,0,2.1-0.4,2.9-1.3c0.8-0.8,1.2-2.1,1.2-3.6c0-1.6-0.4-2.8-1.2-3.6c-0.8-0.8-1.7-1.3-2.9-1.3c-1.2,0-2.2,0.4-2.9,1.3
	c-0.8,0.8-1.2,2-1.2,3.6c0,1.6,0.4,2.8,1.1,3.6C214.7,301.2,215.6,301.6,216.8,301.6z M255.4,286.6c2.4,0,4.4,0.7,5.8,2.2
	c1.5,1.5,2.2,3.5,2.2,6.2v11.5h-6v-10.7c0-1.3-0.3-2.2-1-2.9c-0.7-0.7-1.6-1.1-2.8-1.1c-1.2,0-2.1,0.4-2.8,1.1c-0.7,0.7-1,1.7-1,2.9
	v10.7h-6v-10.7c0-1.3-0.3-2.2-1-2.9c-0.7-0.7-1.6-1.1-2.8-1.1c-1.2,0-2.1,0.4-2.8,1.1c-0.7,0.7-1,1.7-1,2.9v10.7h-6v-19.7h6v2.5
	c0.6-0.8,1.4-1.5,2.4-1.9c1-0.5,2.1-0.7,3.4-0.7c1.5,0,2.8,0.3,3.9,1c1.2,0.6,2.1,1.5,2.8,2.7c0.7-1.1,1.6-2,2.8-2.6
	C252.7,287,254,286.6,255.4,286.6z"/>
<g>
	<defs>
		<rect id="SVGID_00000124146489875317473420000008122301639939156922_" x="321.1" y="177.4" width="89.1" height="119.2"/>
	</defs>
	<clipPath id="SVGID_00000144334727829914839920000012911571811875059100_">
		<use xlink:href="#SVGID_00000124146489875317473420000008122301639939156922_"  style="overflow:visible;"/>
	</clipPath>
	<g style="clip-path:url(#SVGID_00000144334727829914839920000012911571811875059100_);">
		
			<linearGradient id="SVGID_00000097471983319903397770000016942854647410633385_" gradientUnits="userSpaceOnUse" x1="341.1197" y1="334.9393" x2="391.8437" y2="285.5411" gradientTransform="matrix(1 0 0 -1 0 502)">
			<stop  offset="0" style="stop-color:#FFFFFF"/>
			<stop  offset="1" style="stop-color:#FFFFFF;stop-opacity:0"/>
		</linearGradient>
		<path style="opacity:0.3;fill:url(#SVGID_00000097471983319903397770000016942854647410633385_);enable-background:new    ;" d="
			M391.4,194.3V189c0-1.7-1.4-3.2-3.1-3.2h-2.9c-1.3,0-2.7,0.5-3.6,1.5c-1,1.1-2.4,1.8-4,1.8h-24.3c-1.6,0-3-0.7-4-1.8
			c-0.9-1-2.2-1.5-3.6-1.5H343c-1.7,0-3.1,1.4-3.1,3.2v5.4H391.4L391.4,194.3z"/>
		<path class="st7" d="M391.1,225.7c-2.5,0-4.8-1.1-6.4-2.8c-1.6,1.7-3.9,2.8-6.4,2.8c-2.5,0-4.8-1.1-6.4-2.8
			c-1.6,1.7-3.9,2.8-6.4,2.8s-4.8-1.1-6.4-2.8c-1.6,1.7-3.9,2.8-6.4,2.8c-2.5,0-4.8-1.1-6.4-2.8c-1.6,1.7-3.9,2.8-6.4,2.8
			c-0.1,0-0.2,0-0.3,0V285c0,1.7,1.4,3.2,3.1,3.2h7.7c1.3,0,2.4-0.8,2.8-2c0.8-2.4,3-4.3,5.5-4.3h13.3c2.6,0,4.7,1.9,5.5,4.3
			c0.4,1.2,1.5,2,2.8,2h7.7c1.7,0,3.1-1.4,3.1-3.2v-59.3C391.3,225.6,391.2,225.7,391.1,225.7L391.1,225.7z"/>
		
			<linearGradient id="SVGID_00000102542785365672460740000011569124225142703536_" gradientUnits="userSpaceOnUse" x1="316.7786" y1="280.1303" x2="384.1026" y2="214.5583" gradientTransform="matrix(1 0 0 -1 0 502)">
			<stop  offset="0" style="stop-color:#FFFFFF"/>
			<stop  offset="1" style="stop-color:#FFFFFF;stop-opacity:0"/>
		</linearGradient>
		<path style="opacity:0.5;fill:url(#SVGID_00000102542785365672460740000011569124225142703536_);enable-background:new    ;" d="
			M365.8,243.4c7.4,0,13.5,6.2,13.5,13.9v30.6h-27v-30.6C352.3,249.6,358.3,243.4,365.8,243.4L365.8,243.4z"/>
		
			<linearGradient id="SVGID_00000179637242357154523620000017537836761079431043_" gradientUnits="userSpaceOnUse" x1="331.478" y1="265.4456" x2="376.154" y2="221.9366" gradientTransform="matrix(1 0 0 -1 0 502)">
			<stop  offset="0" style="stop-color:#FFFFFF"/>
			<stop  offset="1" style="stop-color:#FFFFFF;stop-opacity:0"/>
		</linearGradient>
		<path style="opacity:0.5;fill:url(#SVGID_00000179637242357154523620000017537836761079431043_);enable-background:new    ;" d="
			M365.4,246.7c5.9,0,10.7,4.9,10.7,11v28.5h-21.5v-28.5C354.7,251.6,359.5,246.7,365.4,246.7z"/>
		<path class="st10" d="M336.5,194.3v-6.9c0-2.8,2.2-5.1,5-5.1h8.8c0.7,0,1.2,0.5,1.2,1.2c0,1.2,0.9,2.1,2.1,2.1h24.3
			c1.1,0,2.1-0.9,2.1-2.1c0-0.7,0.5-1.2,1.2-1.2h8.8c2.7,0,5,2.3,5,5.1v6.9h3.7v-9.8c0-3.9-3.1-7-6.8-7h-52.1c-3.8,0-6.8,3.1-6.8,7
			v9.8H336.5z"/>
		<path class="st10" d="M375.6,180.9h-19.7c-0.5,0-0.9,0.4-0.9,0.9v0.4c0,0.5,0.4,0.9,0.9,0.9h19.7c0.5,0,0.9-0.4,0.9-0.9v-0.4
			C376.5,181.4,376.1,180.9,375.6,180.9z"/>
		<path class="st10" d="M397.5,222.8c-0.8,0.8-1.7,1.5-2.7,2v61.8c0,2.8-2.2,5.1-5,5.1h-9.1c-0.7,0-1.2-0.5-1.2-1.2v-2.9
			c0-1.2-1-2.2-2.2-2.2h-23.5c-1.2,0-2.2,1-2.2,2.2v2.9c0,0.7-0.5,1.2-1.2,1.2h-9.1c-2.7,0-5-2.3-5-5.1v-61.8c-1-0.5-1.9-1.2-2.7-2
			c-0.3,0.4-0.7,0.7-1.1,1v65.7c0,3.9,3.1,7,6.8,7h52.1c3.8,0,6.8-3.1,6.8-7v-65.7C398.2,223.5,397.8,223.2,397.5,222.8L397.5,222.8
			z"/>
		<path class="st10" d="M372,287.9h-12.5c-0.5,0-0.9,0.4-0.9,0.9v3.7c0,0.5,0.4,0.9,0.9,0.9H372c0.5,0,0.9-0.4,0.9-0.9v-3.7
			C372.9,288.3,372.5,287.9,372,287.9z"/>
		<path class="st4" d="M333.8,213.6h-12.7l11.7-7.7h9.4L333.8,213.6z"/>
		<path class="st10" d="M346.6,213.6h-12.7l8.3-7.7h9.4L346.6,213.6z"/>
		<path class="st4" d="M359.3,213.6h-12.7l5-7.7h9.4L359.3,213.6z"/>
		<path class="st10" d="M372,213.6h-12.7l1.7-7.7h9.4L372,213.6z"/>
		<path class="st4" d="M384.8,213.6H372l-1.7-7.7h9.4L384.8,213.6z"/>
		<path class="st10" d="M397.5,213.6h-12.7l-5-7.7h9.4L397.5,213.6z"/>
		<path class="st4" d="M410.2,213.6h-12.7l-8.3-7.7h9.4L410.2,213.6z"/>
		<path class="st4" d="M342.2,197.4h-9.4v8.4h9.4V197.4z"/>
		<path class="st10" d="M351.6,197.4h-9.4v8.4h9.4V197.4z"/>
		<path class="st4" d="M361,197.4h-9.4v8.4h9.4V197.4z"/>
		<path class="st10" d="M370.4,197.4H361v8.4h9.4V197.4z"/>
		<path class="st4" d="M379.8,197.4h-9.4v8.4h9.4V197.4z"/>
		<path class="st10" d="M389.2,197.4h-9.4v8.4h9.4V197.4z"/>
		<path class="st4" d="M398.6,197.4h-9.4v8.4h9.4V197.4z"/>
		<path class="st4" d="M333.8,215c0,3.6-2.9,6.5-6.4,6.5c-3.5,0-6.4-2.9-6.4-6.5v-1.4h12.7V215z"/>
		<path class="st4" d="M359.3,215c0,3.6-2.9,6.5-6.4,6.5s-6.4-2.9-6.4-6.5v-1.4h12.7L359.3,215L359.3,215z"/>
		<path class="st4" d="M384.8,215c0,3.6-2.9,6.5-6.4,6.5c-3.5,0-6.4-2.9-6.4-6.5v-1.4h12.7L384.8,215L384.8,215z"/>
		<path class="st4" d="M410.2,215c0,3.6-2.9,6.5-6.4,6.5c-3.5,0-6.4-2.9-6.4-6.5v-1.4h12.7L410.2,215L410.2,215z"/>
		<path class="st10" d="M346.6,215c0,3.6-2.9,6.5-6.4,6.5c-3.5,0-6.4-2.9-6.4-6.5v-1.4h12.7L346.6,215L346.6,215z"/>
		<path class="st10" d="M372,215c0,3.6-2.9,6.5-6.4,6.5c-3.5,0-6.4-2.9-6.4-6.5v-1.4H372L372,215L372,215z"/>
		<path class="st10" d="M397.5,215c0,3.6-2.9,6.5-6.4,6.5c-3.5,0-6.4-2.9-6.4-6.5v-1.4h12.7L397.5,215L397.5,215z"/>
		<path class="st10" d="M333.8,215c0.2,3.6-2.9,6.8-6.4,6.7c-3.5,0.1-6.6-3.1-6.4-6.7c0.1,3.5,3,6.5,6.4,6.4
			C330.8,221.5,333.8,218.5,333.8,215z"/>
		<path class="st10" d="M359.3,215c0.2,3.6-2.9,6.8-6.4,6.7c-3.5,0.1-6.6-3.1-6.4-6.7c0.1,3.5,3,6.5,6.4,6.4
			C356.3,221.5,359.2,218.5,359.3,215z"/>
		<path class="st10" d="M384.8,215c0.2,3.6-2.9,6.8-6.4,6.7c-3.5,0.1-6.6-3.1-6.4-6.7c0.1,3.5,3,6.5,6.4,6.4
			C381.8,221.5,384.7,218.5,384.8,215z"/>
		<path class="st10" d="M410.2,215c0.2,3.6-2.9,6.8-6.4,6.7c-3.5,0.1-6.6-3.1-6.4-6.7c0.1,3.5,3,6.5,6.4,6.4
			C407.2,221.5,410.2,218.5,410.2,215z"/>
		<path class="st4" d="M346.6,215c0.2,3.6-2.9,6.8-6.4,6.7c-3.5,0.1-6.6-3.1-6.4-6.7c0.1,3.5,3,6.5,6.4,6.4
			C343.6,221.5,346.5,218.5,346.6,215z"/>
		<path class="st4" d="M372,215c0.2,3.6-2.9,6.8-6.4,6.7c-3.5,0.1-6.6-3.1-6.4-6.7c0.1,3.5,3,6.5,6.4,6.4
			C369,221.5,372,218.5,372,215z"/>
		<path class="st4" d="M397.5,215c0.2,3.6-2.9,6.8-6.4,6.7c-3.5,0.1-6.6-3.1-6.4-6.7c0.1,3.5,3,6.5,6.4,6.4
			C394.5,221.5,397.4,218.5,397.5,215z"/>
	</g>
</g>
<path class="st4" d="M405.1,142.7c0-10.6-4.2-20.7-11.7-28.2c-7.5-7.5-17.6-11.7-28.2-11.7c-10.6,0-20.7,4.2-28.2,11.7
	c-7.5,7.5-11.7,17.6-11.7,28.2h6c0-9,3.6-17.6,9.9-23.9c6.4-6.4,15-9.9,23.9-9.9c9,0,17.6,3.6,23.9,9.9c6.4,6.4,9.9,15,9.9,23.9
	H405.1z"/>
<path class="st11" d="M341.8,150.8c-1.3,0.2-3.4,0.7-4.6,1.1c-2.5,0.7-2.3,0.5-2.6,3.2l-0.1,1.4l1.3,0.4c1.3,0.4,2.9,1.4,3.5,2.1
	c0.3,0.4,0.3,0.4-0.1,0.7c-0.7,0.5-2.1,0.7-4.2,0.6c-1.2,0-2.4-0.2-2.7-0.3c-0.3-0.1-1-0.7-1.5-1.2c-0.5-0.5-1-0.9-1.1-0.9
	c-0.1,0-0.4,0.7-0.9,1.5l-0.8,1.4l1,0.8c1.2,1,1.6,1.6,1.3,2.2c-0.7,1.1-3.8,3.4-5.7,4.1c-0.4,0.1-0.7,0.3-0.7,0.4
	c0,0.2,1.9,1,3,1.3c0.5,0.2,0.9,0.2,1.2,0c1-0.5,3.1-3.5,3.7-5.3c0.1-0.5,0.3-1,0.3-1.1c0.1-0.2,0.2-0.2,0.7,0
	c1.7,0.8,6.7-0.4,7.5-1.8c0.1-0.2,0.3-1.2,0.3-2.3c0.1-1.7,0.1-1.9-0.3-2.3c-0.6-0.6-2.1-1.5-3.5-2c-1.1-0.4-1.2-0.4-0.7-0.6
	c1-0.3,3.7-0.8,5.5-0.9l1.8-0.1l0.6-1.3c0.3-0.7,0.6-1.3,0.6-1.4C344.8,150.2,344.3,150.3,341.8,150.8z M328.5,153.4l-1.1,0.8l1,0.9
	l1,0.9l1-0.9l1-0.9l-1-0.9l-1-0.9L328.5,153.4z M401.1,153c0,0-0.1,0.8-0.3,1.7c-0.2,0.9-0.2,1.7-0.2,1.8c0.1,0.1,0.3,0.1,0.5,0.1
	c0.2,0,1,0.3,1.7,0.6c1,0.5,1.5,0.8,2,1.5c0.3,0.5,0.6,1,0.6,1.2c0,0.4-1.7,0.9-3.1,0.9c-1,0-1.2-0.1-1.8-0.6
	c-0.4-0.3-0.7-0.6-0.8-0.6c-0.2,0-0.4,0.6-0.6,2.1l-0.1,1.3l0.8,0.3c1,0.4,3.1,0.3,4.9-0.2c1.4-0.4,1.8-0.9,2.2-3
	c0.2-1.3,0.2-1.7-0.1-2.6c-0.4-1.3-1.7-2.6-3.2-3.5C402.6,153.5,401.1,152.9,401.1,153z M383.6,156.2c-0.5,0.6-0.9,1.2-0.9,1.2
	c0,0.1,0.3,0.5,0.6,1c0.4,0.5,0.6,1,0.6,1.2c0,0.5-1.3,0.8-3.4,0.7c-2.3-0.1-3.7-0.6-6.1-2l-1.9-1.1l-0.2,0.8
	c-0.2,0.8-0.2,0.8-1.4,1.1c-1.8,0.5-2.2,0.8-2.7,2.5c-0.4,1.3-0.5,1.6-0.2,3.5c0.1,1.1,0.2,2.6,0.2,3.3c0,0.7,0,1.3,0.1,1.3
	c0.1,0,0.4-0.3,0.9-0.7l0.8-0.7l-0.1-1.9c-0.1-1-0.2-2.4-0.3-3.1l-0.1-1.2l0.7-0.2c1.9-0.5,1.8-0.5,2,0.6c0.4,2.8,2.5,4.7,4.3,3.9
	c0.7-0.3,1.8-2,1.8-2.8c0-0.4,0.1-0.5,0.4-0.4c0.8,0.3,2.6,0.3,3.7,0.1c1.6-0.3,2.6-1.3,3.2-2.9c0.7-1.9,0.5-3-0.6-4.6l-0.4-0.6
	L383.6,156.2z M354.2,156.8c-0.3,0.3-0.9,1.2-1.4,2c-0.5,0.8-1,1.4-1.1,1.5c-0.1,0.1-0.8,0-1.6-0.1c-1.4-0.2-1.5-0.2-2.7-1.3
	c-0.7-0.6-1.3-1.1-1.3-1c0,0-0.4,0.7-0.9,1.4l-0.8,1.3l0.9,0.8c0.5,0.4,1.1,1,1.3,1.4c0.3,0.6,0.3,0.6-0.3,1.3
	c-1,1.1-1.9,1.9-3.8,2.9c-1,0.5-1.9,1-2,1c-0.4,0.1,0.5,0.6,2.1,1.2c1.8,0.6,2,0.5,3.2-0.9c1.1-1.3,1.9-2.8,2.4-4.2
	c0.2-0.8,0.5-1.1,0.7-1.1c1.5,0.4,1.9,0.4,2.4,0.3c0.3-0.1,0.8-0.4,1.1-0.7l0.5-0.5l1.1,0.6c1.2,0.7,2.7,1.2,3.1,0.9
	c0.2-0.1,0.7-0.7,1.2-1.4c0.7-1,0.9-1.3,0.9-2.1c0-2-0.9-3.3-2.6-3.7C355.1,156,354.7,156.1,354.2,156.8z M393.7,159.7l-0.9,1.5
	l0.8,0.6c0.4,0.3,1,0.9,1.2,1.3c0.4,0.7,0.4,0.7-0.2,1.4c-0.7,0.9-2.6,2.3-4.4,3.1c-0.8,0.4-1.4,0.7-1.4,0.8c0,0.2,2,1.1,3.2,1.4
	c0.9,0.2,0.9,0.2,1.6-0.4c0.8-0.8,1.9-2.5,2.7-4c0.8-1.6,0.7-3.5-0.1-5.1c-0.4-0.7-0.9-1.4-1.1-1.7l-0.4-0.5L393.7,159.7z
	 M354.4,159.1c-0.2,0.3-0.4,0.7-0.4,0.7c0,0.4,3,1.8,3.4,1.6c0.2-0.1,0-1.2-0.4-1.7c-0.2-0.4-1.7-1.2-2.1-1.2
	C354.9,158.4,354.7,158.7,354.4,159.1z M373.5,161.4c0.5,2.2,2,3.2,3.2,1.9c0.7-0.7,0.7-0.8-0.1-1.1c-0.4-0.1-1.2-0.5-1.8-0.9
	c-0.7-0.4-1.2-0.6-1.3-0.6C373.4,160.7,373.4,161,373.5,161.4z M385.1,165.6c-0.4,0.4-0.8,0.7-0.9,0.7s-0.5-0.3-0.9-0.6l-0.8-0.6
	l-0.9,0.7l-0.9,0.7l0.9,0.7l0.9,0.7l0.8-0.7l0.8-0.7l0.9,0.7l0.9,0.7l0.8-0.7c0.4-0.4,0.8-0.8,0.8-0.8c0-0.1-0.4-0.4-0.9-0.8
	l-0.9-0.7L385.1,165.6z"/>
<path class="st11" d="M403.8,146.7c-0.6,0.5-0.6,0.6-0.7,1.7c-0.1,1.1-0.1,1.3-0.6,1.8c-0.3,0.4-0.7,0.6-1.1,0.8
	c-0.4,0.1-0.5,0.3-0.4,0.4c0.1,0,0.6,0,1.7-0.1c1.9-0.2,2.3-0.3,2.9-0.7c0.4-0.3,0.9-0.9,0.9-1.1c0-0.7-1.1-0.9-2.2-0.4
	c-0.3,0.1-0.5,0.2-0.5,0.1c0.2-0.3,0.4-2.8,0.2-2.8C404.2,146.4,404,146.5,403.8,146.7z M404.3,149.7c-0.4,0.1-1.6,1-1.3,1
	c0.1,0,0.5-0.1,0.9-0.2c0.6-0.1,0.9-0.2,1.1-0.4c0.3-0.2,0.4-0.4,0.2-0.5C405.1,149.6,404.7,149.6,404.3,149.7z"/>
</svg>
