<?xml version="1.0" encoding="UTF-8"?>
<svg id="Layer_2" data-name="Layer 2" xmlns="http://www.w3.org/2000/svg" viewBox="0 0 1489.97 665.52">
  <defs>
    <style>
      .cls-1, .cls-2 {
        stroke-width: 0px;
      }

      .cls-2 {
        fill: teal;
      }
    </style>
  </defs>
  <g id="Layer_3" data-name="Layer 3">
    <g>
      <g>
        <path class="cls-1" d="M0,447.06v-30.4h199.73v30.4H0ZM83.07,661.99v-238.26h33.58v238.26h-33.58Z"/>
        <path class="cls-1" d="M301.53,665.52c-16.97,0-32.11-3.83-45.43-11.49-13.32-7.66-23.86-18.08-31.64-31.28-7.78-13.2-11.67-28.16-11.67-44.89s3.83-31.34,11.49-44.54c7.66-13.2,18.03-23.62,31.11-31.28,13.08-7.66,27.75-11.49,44.01-11.49,15.32,0,28.99,3.53,41.01,10.6,12.02,7.07,21.39,16.85,28.1,29.34,6.72,12.49,10.08,26.75,10.08,42.77,0,2.36-.12,4.89-.35,7.6-.24,2.71-.71,5.72-1.41,9.01h-141.75v-26.51h124.79l-11.67,10.25c0-11.31-2-20.91-6.01-28.81-4.01-7.89-9.67-14.02-16.97-18.38-7.31-4.36-16.14-6.54-26.51-6.54s-20.39,2.36-28.63,7.07c-8.25,4.72-14.62,11.31-19.09,19.8-4.48,8.48-6.72,18.5-6.72,30.05s2.35,22.09,7.07,30.93c4.71,8.84,11.43,15.68,20.15,20.5,8.72,4.83,18.74,7.25,30.05,7.25,9.42,0,18.08-1.65,25.98-4.95,7.89-3.3,14.67-8.25,20.33-14.85l20.5,20.86c-8.25,9.43-18.15,16.61-29.69,21.56-11.55,4.95-23.92,7.42-37.12,7.42Z"/>
        <path class="cls-1" d="M480.05,665.52c-16.5,0-31.41-3.89-44.72-11.67-13.32-7.78-23.81-18.32-31.46-31.64-7.66-13.31-11.49-28.1-11.49-44.36s3.83-31.34,11.49-44.54c7.66-13.2,18.14-23.62,31.46-31.28,13.31-7.66,28.22-11.49,44.72-11.49,12.96,0,24.98,2.42,36.06,7.25,11.07,4.83,20.62,11.84,28.63,21.03l-21.21,21.21c-5.19-6.13-11.55-10.78-19.09-13.96-7.54-3.18-15.68-4.77-24.39-4.77-10.6,0-20.03,2.42-28.28,7.25-8.25,4.83-14.73,11.49-19.44,19.97-4.72,8.48-7.07,18.27-7.07,29.34s2.35,20.86,7.07,29.34c4.71,8.48,11.19,15.2,19.44,20.15,8.25,4.95,17.68,7.42,28.28,7.42,8.95,0,17.14-1.59,24.57-4.77,7.42-3.18,13.84-7.83,19.27-13.96l20.86,21.21c-7.78,8.96-17.27,15.91-28.46,20.86-11.2,4.95-23.28,7.42-36.23,7.42Z"/>
        <path class="cls-1" d="M566.3,661.99v-252.4h31.81v252.4h-31.81ZM684.72,661.99v-97.92c0-12.73-3.95-23.21-11.84-31.46-7.9-8.25-18.21-12.37-30.93-12.37-8.48,0-16.03,1.89-22.62,5.66-6.6,3.77-11.79,8.96-15.55,15.55-3.77,6.6-5.66,14.14-5.66,22.62l-13.08-7.42c0-12.73,2.83-24.04,8.48-33.94s13.55-17.73,23.68-23.51c10.13-5.77,21.56-8.66,34.29-8.66s23.98,2.83,33.76,8.48c9.78,5.66,17.5,13.55,23.15,23.68,5.66,10.14,8.48,21.8,8.48,35v104.28h-32.17Z"/>
        <path class="cls-1" d="M750.12,661.99v-167.91h31.81v167.91h-31.81ZM868.54,661.99v-97.92c0-12.73-3.95-23.21-11.84-31.46-7.9-8.25-18.21-12.37-30.93-12.37-8.48,0-16.03,1.89-22.62,5.66-6.6,3.77-11.79,8.96-15.55,15.55-3.77,6.6-5.66,14.14-5.66,22.62l-13.08-7.42c0-12.73,2.83-24.04,8.48-33.94,5.66-9.9,13.55-17.73,23.68-23.51,10.13-5.77,21.56-8.66,34.29-8.66s23.98,3.18,33.76,9.54c9.78,6.36,17.5,14.67,23.15,24.92s8.48,21.15,8.48,32.7v104.28h-32.17Z"/>
        <path class="cls-1" d="M1005.34,665.52c-15.55,0-29.52-3.83-41.89-11.49-12.37-7.66-22.15-18.08-29.34-31.28-7.19-13.2-10.78-28.04-10.78-44.54s3.59-31.34,10.78-44.54c7.19-13.2,16.97-23.68,29.34-31.46,12.37-7.78,26.34-11.67,41.89-11.67,12.73,0,24.09,2.65,34.11,7.95,10.01,5.3,18.08,12.61,24.21,21.92,6.12,9.31,9.54,20.09,10.25,32.34v50.55c-.71,12.02-4.07,22.75-10.08,32.17-6.01,9.43-14.08,16.79-24.21,22.09-10.14,5.3-21.56,7.95-34.29,7.95ZM1010.64,635.47c15.79,0,28.51-5.36,38.18-16.08,9.66-10.72,14.49-24.45,14.49-41.18,0-11.31-2.24-21.33-6.72-30.05-4.48-8.72-10.67-15.49-18.56-20.33-7.9-4.83-17.14-7.25-27.75-7.25s-19.97,2.47-28.1,7.42c-8.13,4.95-14.49,11.73-19.09,20.33-4.6,8.61-6.89,18.44-6.89,29.52s2.3,21.27,6.89,29.87c4.6,8.61,11.01,15.38,19.27,20.33,8.25,4.95,17.68,7.42,28.28,7.42ZM1061.19,661.99v-45.25l6.01-41.01-6.01-40.65v-41.01h32.17v167.91h-32.17Z"/>
        <path class="cls-1" d="M1200.46,665.52c-15.32,0-29.11-3.83-41.36-11.49-12.26-7.66-21.98-18.08-29.16-31.28-7.19-13.2-10.78-28.04-10.78-44.54s3.59-31.34,10.78-44.54c7.19-13.2,16.91-23.68,29.16-31.46,12.25-7.78,26.04-11.67,41.36-11.67,12.73,0,24.15,2.65,34.29,7.95,10.13,5.3,18.32,12.61,24.57,21.92,6.24,9.31,9.72,20.09,10.43,32.34v50.55c-.71,12.02-4.13,22.75-10.25,32.17-6.13,9.43-14.26,16.79-24.39,22.09-10.14,5.3-21.69,7.95-34.64,7.95ZM1205.77,635.47c10.6,0,19.91-2.47,27.93-7.42,8.01-4.95,14.26-11.72,18.74-20.33,4.47-8.6,6.72-18.44,6.72-29.52s-2.24-21.27-6.72-29.87c-4.48-8.6-10.73-15.38-18.74-20.33-8.01-4.95-17.32-7.42-27.93-7.42s-19.92,2.42-27.93,7.25c-8.01,4.83-14.32,11.55-18.91,20.15-4.6,8.61-6.89,18.56-6.89,29.87s2.3,21.33,6.89,30.05c4.59,8.72,10.96,15.5,19.09,20.33,8.13,4.83,17.38,7.25,27.75,7.25ZM1289.19,661.99h-32.17v-45.25l6.01-41.01-6.01-40.65v-125.49h32.17v252.4Z"/>
        <path class="cls-1" d="M1401.95,665.52c-16.26,0-30.99-3.89-44.19-11.67-13.2-7.78-23.68-18.32-31.46-31.64-7.78-13.31-11.67-28.22-11.67-44.72s3.89-30.93,11.67-44.01c7.78-13.08,18.26-23.51,31.46-31.28,13.2-7.78,27.93-11.67,44.19-11.67s31.4,3.83,44.72,11.49c13.31,7.66,23.86,18.09,31.64,31.28,7.78,13.2,11.67,27.93,11.67,44.19s-3.89,31.41-11.67,44.72c-7.78,13.32-18.33,23.86-31.64,31.64-13.32,7.78-28.22,11.67-44.72,11.67ZM1401.95,634.77c10.84,0,20.38-2.47,28.63-7.42,8.25-4.95,14.73-11.72,19.44-20.33,4.71-8.6,7.07-18.44,7.07-29.52s-2.42-20.5-7.25-28.99c-4.83-8.48-11.31-15.14-19.44-19.97-8.13-4.83-17.62-7.25-28.46-7.25s-19.68,2.42-27.93,7.25c-8.25,4.83-14.73,11.49-19.44,19.97-4.72,8.48-7.07,18.15-7.07,28.99s2.35,20.92,7.07,29.52c4.71,8.61,11.19,15.38,19.44,20.33,8.25,4.95,17.55,7.42,27.93,7.42Z"/>
      </g>
      <line class="cls-1" x1="485.17" y1="74.68" x2="911.02" y2="26.46"/>
      <g>
        <line class="cls-1" x1="570.21" y1="138.2" x2="858.58" y2="105.67"/>
        <path class="cls-1" d="M570.18,164.66c-13.28,0-24.73-9.98-26.26-23.49-1.64-14.52,8.8-27.62,23.32-29.25l288.37-32.53c14.5-1.64,27.62,8.8,29.25,23.32,1.64,14.52-8.8,27.62-23.32,29.25l-288.37,32.53c-1.01.11-2.01.17-3,.17Z"/>
      </g>
      <g>
        <line class="cls-1" x1="635.36" y1="200.7" x2="771.23" y2="183.18"/>
        <path class="cls-1" d="M635,227.16c-10.58-.13-19.58-10.22-20.63-23.75-1.12-14.53,7.36-27.53,18.94-29.02l135.87-17.52c11.56-1.49,21.89,9.07,23.02,23.61,1.12,14.53-7.36,27.53-18.94,29.02l-135.87,17.52c-.8.1-1.6.15-2.39.14Z"/>
      </g>
      <g>
        <line class="cls-1" x1="687.15" y1="261.13" x2="758.65" y2="251.5"/>
        <path class="cls-1" d="M685.82,287.55c-10.92-.54-20.08-10.29-21.2-23.39-1.24-14.51,7.84-27.63,20.28-29.3l71.5-9.62c12.45-1.68,23.54,8.73,24.78,23.24,1.24,14.51-7.84,27.63-20.28,29.3l-71.5,9.62c-1.21.16-2.4.21-3.58.15Z"/>
      </g>
      <g>
        <line class="cls-1" x1="723.76" y1="320.41" x2="767.63" y2="313.92"/>
        <path class="cls-1" d="M723.13,342.98c-10.01-.27-18.61-8.39-19.96-19.52-1.5-12.35,6.5-23.73,17.87-25.41l43.87-6.49c11.34-1.69,21.8,6.96,23.29,19.32,1.5,12.35-6.5,23.73-17.87,25.41l-43.87,6.49c-1.12.17-2.24.23-3.33.2Z"/>
      </g>
      <g>
        <line class="cls-1" x1="772.35" y1="368.42" x2="794.33" y2="364.73"/>
        <path class="cls-1" d="M770.99,391.38c-9.66-.56-17.88-8.53-19.27-19.5-1.6-12.55,6.34-24.28,17.73-26.19l21.98-3.68c11.39-1.92,21.93,6.72,23.52,19.27,1.6,12.55-6.34,24.28-17.73,26.19l-21.98,3.68c-1.44.24-2.86.31-4.25.23Z"/>
      </g>
      <path class="cls-2" d="M484.58,101.13c-11.11-.24-20.47-10.42-21.46-23.95-1.06-14.54,7.95-27.45,20.13-28.83L909.1.12c12.14-1.38,22.91,9.29,23.97,23.84,1.06,14.54-7.95,27.45-20.13,28.83l-425.85,48.22c-.84.1-1.68.13-2.51.12Z"/>
    </g>
  </g>
</svg>